<svg xmlns="http://www.w3.org/2000/svg" version="1.0" width="10.2rem" height="10.2rem" viewBox="0 0 500 500">

<g transform="translate(0.000000,500.000000) scale(0.100000,-0.100000)" stroke="none">
<path d="M829 3361 l-39 -39 0 -691 0 -691 110 0 110 0 0 108 c1 140 10 179 54 220 66 60 167 37 211 -49 11 -20 15 -63 15 -154 l0 -125 115 0 115 0 0 670 c0 744 1 729 -65 770 -30 19 -49 20 -310 20 l-277 0 -39 -39z m379 -153 c7 -7 12 -31 12 -55 0 -43 0 -43 36 -43 59 0 74 -14 74 -68 0 -59 -12 -72 -67 -72 l-43 0 0 -44 c0 -53 -18 -71 -72 -71 -48 0 -68 22 -68 77 l0 38 -43 0 c-54 0 -67 13 -67 66 0 54 20 74 71 74 38 0 39 1 39 36 0 59 14 74 68 74 27 0 53 -5 60 -12z"/>
<path d="M313 3115 c-55 -24 -73 -66 -73 -172 l0 -93 123 0 c126 0 147 -6 147 -40 0 -40 -31 -50 -153 -50 l-117 0 0 -90 0 -90 116 0 c125 0 154 -8 154 -43 0 -42 -17 -47 -147 -47 l-123 0 0 -229 c0 -221 1 -229 23 -262 37 -55 54 -59 250 -59 l177 0 0 595 0 595 -172 0 c-126 -1 -182 -5 -205 -15z"/>
<path d="M1610 2535 l0 -595 186 0 186 0 39 39 39 39 0 236 0 236 -125 0 c-124 0 -126 0 -137 25 -9 21 -8 28 7 45 16 18 31 20 137 20 l118 0 0 90 0 90 -114 0 c-97 0 -117 3 -137 19 -21 16 -22 22 -11 45 l12 26 125 0 125 0 0 99 c0 85 -3 102 -21 125 -40 51 -63 56 -254 56 l-175 0 0 -595z"/>
<path d="M2246 2865 l-26 -24 0 -369 c0 -328 2 -371 16 -376 9 -3 55 -6 103 -6 83 0 89 2 114 28 l27 28 0 195 c1 173 2 191 15 169 8 -14 14 -46 15 -72 0 -62 17 -78 84 -78 62 0 78 13 132 111 20 35 32 53 28 39 -5 -14 -8 -113 -9 -220 l0 -195 104 -3 c104 -3 105 -3 127 25 23 28 23 28 24 388 0 268 -3 364 -12 373 -8 8 -47 12 -112 12 l-99 0 -37 -38 c-20 -21 -52 -73 -71 -116 -21 -48 -39 -75 -48 -74 -7 2 -41 51 -74 110 -39 70 -67 108 -81 112 -12 3 -60 6 -107 6 -78 0 -89 -2 -113 -25z"/>
<path d="M3791 2879 c-58 -11 -114 -49 -148 -101 -25 -37 -28 -52 -31 -148 -7 -178 30 -226 184 -250 149 -22 195 -33 191 -44 -2 -7 -59 -13 -169 -16 -165 -5 -166 -5 -187 -32 -17 -21 -21 -40 -21 -100 0 -44 5 -79 12 -86 15 -15 366 -17 437 -1 58 12 129 69 155 123 23 50 23 238 -2 286 -24 49 -86 77 -209 94 -56 7 -106 17 -112 20 -16 10 -13 42 4 56 12 10 15 10 15 -4 0 -14 16 -16 121 -16 154 0 158 4 159 131 0 70 -3 88 -16 93 -23 9 -332 5 -383 -5z"/>
<path d="M3057 2323 c-4 -3 -7 -60 -7 -125 l0 -119 88 3 87 3 3 33 3 32 -50 0 c-34 0 -51 4 -51 13 0 7 13 12 31 12 35 0 56 23 46 49 -4 11 -18 16 -42 16 -53 0 -42 18 13 22 45 3 47 4 50 36 l3 32 -84 0 c-46 0 -87 -3 -90 -7z"/>
<path d="M3271 2316 c-8 -9 -11 -51 -9 -122 l3 -109 88 0 c116 0 127 11 127 126 0 108 -11 119 -119 119 -55 0 -82 -4 -90 -14z m125 -80 c11 -44 1 -81 -23 -84 -22 -3 -23 0 -23 52 0 49 2 56 20 56 12 0 22 -9 26 -24z"/>
<path d="M4315 2305 c-22 -21 -25 -33 -25 -103 0 -108 8 -117 102 -117 l73 0 3 33 c3 31 2 32 -36 32 -49 0 -64 17 -60 67 3 37 4 38 48 43 42 5 45 7 48 38 l3 32 -66 0 c-57 0 -69 -3 -90 -25z"/>
<path d="M4527 2283 c-14 -32 -23 -75 -25 -125 l-4 -78 29 0 c34 0 53 16 53 46 0 17 5 20 25 16 20 -3 25 -10 25 -34 0 -28 2 -29 38 -26 l37 3 3 59 c2 42 -3 78 -19 123 l-23 63 -58 0 -59 0 -22 -47z m90 -48 c10 -23 9 -25 -12 -25 -18 0 -21 4 -17 25 6 32 14 32 29 0z"/>
<path d="M4751 2316 c-8 -9 -11 -51 -9 -122 l3 -109 28 -3 c42 -5 57 13 58 72 0 28 3 44 6 36 3 -8 14 -26 24 -39 11 -13 19 -34 19 -47 0 -19 5 -24 24 -24 55 0 56 3 56 132 l0 119 -37 -3 c-35 -3 -38 -6 -43 -38 l-5 -35 -30 37 c-32 40 -72 51 -94 24z"/>
</g>
</svg>