<svg xmlns="http://www.w3.org/2000/svg" xmlns:xlink="http://www.w3.org/1999/xlink" width="10.2rem" zoomAndPan="magnify" viewBox="0 0 324.75 81.749997" height="10.2rem" preserveAspectRatio="xMidYMid meet" version="1.0">

<defs><g/><clipPath id="f5b84e5106"><path d="M 215 40 L 324.128906 40 L 324.128906 42 L 215 42 Z M 215 40 " clip-rule="nonzero"/></clipPath><clipPath id="e8cd903053"><path d="M 0.371094 40 L 109 40 L 109 41 L 0.371094 41 Z M 0.371094 40 " clip-rule="nonzero"/></clipPath><clipPath id="2198b5341e"><path d="M 108.386719 22.601562 L 216.058594 22.601562 L 216.058594 58.925781 L 108.386719 58.925781 Z M 108.386719 22.601562 " clip-rule="nonzero"/></clipPath><clipPath id="c345d06afe"><path d="M 118.105469 22.601562 L 206.386719 22.601562 C 211.753906 22.601562 216.105469 26.953125 216.105469 32.320312 L 216.105469 49.179688 C 216.105469 54.546875 211.753906 58.898438 206.386719 58.898438 L 118.105469 58.898438 C 112.738281 58.898438 108.386719 54.546875 108.386719 49.179688 L 108.386719 32.320312 C 108.386719 26.953125 112.738281 22.601562 118.105469 22.601562 Z M 118.105469 22.601562 " clip-rule="nonzero"/></clipPath><clipPath id="8d580d4d2e"><path d="M 0.371094 0.375 L 324.128906 0.375 L 324.128906 81.5 L 0.371094 81.5 Z M 0.371094 0.375 " clip-rule="nonzero"/></clipPath><clipPath id="8860c4ab6c"><path d="M 0.371094 0.375 L 324.128906 0.375 L 324.128906 81.5 L 0.371094 81.5 Z M 0.371094 0.375 " clip-rule="nonzero"/></clipPath><clipPath id="ea613f2c57"><path d="M 23.410156 8.148438 L 300.8125 8.148438 L 300.8125 73.949219 L 23.410156 73.949219 Z M 23.410156 8.148438 " clip-rule="nonzero"/></clipPath><clipPath id="62c551efb1"><path d="M 233.53125 8.328125 L 247 8.328125 L 247 22 L 233.53125 22 Z M 233.53125 8.328125 " clip-rule="nonzero"/></clipPath><clipPath id="85c0eb8657"><path d="M 246 21 L 253.71875 21 L 253.71875 28.519531 L 246 28.519531 Z M 246 21 " clip-rule="nonzero"/></clipPath></defs><g clip-path="url(#f5b84e5106)"><path stroke-linecap="butt" transform="matrix(0.747713, -0.000000000000000464, 0.000000000000000464, 0.747713, 216.113556, 40.37652)" fill="none" stroke-linejoin="miter" d="M -0.000366808 0.499496 L 144.460909 0.499496 " stroke="#ffffff" stroke-width="1" stroke-opacity="1" stroke-miterlimit="4"/></g><g clip-path="url(#e8cd903053)"><path stroke-linecap="butt" transform="matrix(0.747713, 0, 0, 0.747713, 0.370433, 40.233009)" fill="none" stroke-linejoin="miter" d="M 0.000883201 0.498131 L 144.462159 0.498131 " stroke="#ffffff" stroke-width="1" stroke-opacity="1" stroke-miterlimit="4"/></g><g clip-path="url(#2198b5341e)"><g clip-path="url(#c345d06afe)"><path stroke-linecap="butt" transform="matrix(0.747713, 0, 0, 0.747713, 108.387425, 22.601674)" fill="none" stroke-linejoin="miter" d="M 12.997017 -0.000149323 L 131.065316 -0.000149323 C 138.243451 -0.000149323 144.063278 5.819677 144.063278 12.997812 L 144.063278 35.545723 C 144.063278 42.723858 138.243451 48.543684 131.065316 48.543684 L 12.997017 48.543684 C 5.818882 48.543684 -0.000944932 42.723858 -0.000944932 35.545723 L -0.000944932 12.997812 C -0.000944932 5.819677 5.818882 -0.000149323 12.997017 -0.000149323 Z M 12.997017 -0.000149323 " stroke="#ffffff" stroke-width="2" stroke-opacity="1" stroke-miterlimit="4"/></g></g><g fill="#ffffff" fill-opacity="1"><g transform="translate(127.907401, 37.010404)"><g><path d="M 3.40625 0.09375 C 2.757812 0.09375 2.21875 -0.046875 1.78125 -0.328125 C 1.351562 -0.609375 1.035156 -1.003906 0.828125 -1.515625 C 0.617188 -2.023438 0.515625 -2.617188 0.515625 -3.296875 C 0.515625 -3.972656 0.617188 -4.5625 0.828125 -5.0625 C 1.035156 -5.570312 1.351562 -5.960938 1.78125 -6.234375 C 2.21875 -6.515625 2.765625 -6.65625 3.421875 -6.65625 C 4.035156 -6.65625 4.554688 -6.515625 4.984375 -6.234375 C 5.410156 -5.960938 5.734375 -5.570312 5.953125 -5.0625 C 6.179688 -4.5625 6.296875 -3.972656 6.296875 -3.296875 C 6.296875 -2.609375 6.179688 -2.007812 5.953125 -1.5 C 5.734375 -1 5.410156 -0.609375 4.984375 -0.328125 C 4.554688 -0.046875 4.03125 0.09375 3.40625 0.09375 Z M 3.40625 0 C 4.0625 0 4.535156 -0.257812 4.828125 -0.78125 C 5.128906 -1.300781 5.28125 -2.140625 5.28125 -3.296875 C 5.28125 -4.441406 5.128906 -5.269531 4.828125 -5.78125 C 4.535156 -6.300781 4.066406 -6.5625 3.421875 -6.5625 C 2.765625 -6.5625 2.285156 -6.300781 1.984375 -5.78125 C 1.679688 -5.269531 1.53125 -4.441406 1.53125 -3.296875 C 1.53125 -2.140625 1.675781 -1.300781 1.96875 -0.78125 C 2.269531 -0.257812 2.75 0 3.40625 0 Z M 3.40625 0 "/></g></g></g><g fill="#ffffff" fill-opacity="1"><g transform="translate(142.068009, 37.010404)"><g><path d="M 0.34375 0 L 0.34375 -0.09375 L 0.46875 -0.09375 C 0.96875 -0.09375 1.21875 -0.3125 1.21875 -0.75 L 1.21875 -5.84375 C 1.21875 -6.257812 0.96875 -6.46875 0.46875 -6.46875 L 0.34375 -6.46875 L 0.34375 -6.5625 L 3.015625 -6.5625 L 3.015625 -6.46875 L 2.90625 -6.46875 C 2.40625 -6.46875 2.15625 -6.25 2.15625 -5.8125 L 2.15625 -0.09375 L 3.84375 -0.09375 C 4.175781 -0.09375 4.4375 -0.140625 4.625 -0.234375 C 4.820312 -0.328125 4.960938 -0.488281 5.046875 -0.71875 C 5.140625 -0.957031 5.203125 -1.273438 5.234375 -1.671875 L 5.25 -1.96875 L 5.34375 -1.96875 L 5.28125 0 Z M 0.34375 0 "/></g></g></g><g fill="#ffffff" fill-opacity="1"><g transform="translate(155.135989, 37.010404)"><g><path d="M 0.34375 0 L 0.34375 -0.09375 L 0.46875 -0.09375 C 0.96875 -0.09375 1.21875 -0.3125 1.21875 -0.75 L 1.21875 -5.84375 C 1.21875 -6.257812 0.96875 -6.46875 0.46875 -6.46875 L 0.34375 -6.46875 L 0.34375 -6.5625 L 3.015625 -6.5625 L 3.015625 -6.46875 L 2.90625 -6.46875 C 2.40625 -6.46875 2.15625 -6.25 2.15625 -5.8125 L 2.15625 -0.75 C 2.15625 -0.3125 2.40625 -0.09375 2.90625 -0.09375 L 3.015625 -0.09375 L 3.015625 0 Z M 0.34375 0 "/></g></g></g><g fill="#ffffff" fill-opacity="1"><g transform="translate(165.85344, 37.010404)"><g><path d="M 2.890625 0 L 0.78125 -5.96875 C 0.71875 -6.15625 0.640625 -6.285156 0.546875 -6.359375 C 0.453125 -6.429688 0.3125 -6.46875 0.125 -6.46875 L 0 -6.46875 L 0 -6.5625 L 2.53125 -6.5625 L 2.53125 -6.46875 L 2.3125 -6.46875 C 2.113281 -6.46875 1.96875 -6.441406 1.875 -6.390625 C 1.78125 -6.335938 1.734375 -6.25 1.734375 -6.125 C 1.734375 -6 1.765625 -5.851562 1.828125 -5.6875 L 2.96875 -2.40625 C 3.1875 -1.800781 3.351562 -1.269531 3.46875 -0.8125 C 3.53125 -1.039062 3.609375 -1.296875 3.703125 -1.578125 C 3.796875 -1.867188 3.882812 -2.144531 3.96875 -2.40625 L 5.015625 -5.609375 C 5.046875 -5.710938 5.070312 -5.800781 5.09375 -5.875 C 5.113281 -5.945312 5.125 -6.015625 5.125 -6.078125 C 5.125 -6.222656 5.070312 -6.320312 4.96875 -6.375 C 4.863281 -6.4375 4.707031 -6.46875 4.5 -6.46875 L 3.953125 -6.46875 L 3.953125 -6.5625 L 6.203125 -6.5625 L 6.203125 -6.46875 L 5.875 -6.46875 C 5.695312 -6.46875 5.554688 -6.414062 5.453125 -6.3125 C 5.359375 -6.207031 5.269531 -6.023438 5.1875 -5.765625 L 3.28125 0 Z M 2.890625 0 "/></g></g></g><g fill="#ffffff" fill-opacity="1"><g transform="translate(179.398871, 37.010404)"><g><path d="M 0.34375 0 L 0.34375 -0.09375 L 0.46875 -0.09375 C 0.96875 -0.09375 1.21875 -0.3125 1.21875 -0.75 L 1.21875 -5.84375 C 1.21875 -6.257812 0.96875 -6.46875 0.46875 -6.46875 L 0.34375 -6.46875 L 0.34375 -6.5625 L 3.015625 -6.5625 L 3.015625 -6.46875 L 2.90625 -6.46875 C 2.40625 -6.46875 2.15625 -6.25 2.15625 -5.8125 L 2.15625 -0.75 C 2.15625 -0.3125 2.40625 -0.09375 2.90625 -0.09375 L 3.015625 -0.09375 L 3.015625 0 Z M 0.34375 0 "/></g></g></g><g fill="#ffffff" fill-opacity="1"><g transform="translate(190.116324, 37.010404)"><g><path d="M 0 0 L 0 -0.09375 L 0.265625 -0.09375 C 0.460938 -0.09375 0.617188 -0.144531 0.734375 -0.25 C 0.847656 -0.351562 0.945312 -0.539062 1.03125 -0.8125 L 3.046875 -6.5625 L 3.515625 -6.5625 L 5.8125 -0.578125 C 5.882812 -0.390625 5.957031 -0.257812 6.03125 -0.1875 C 6.113281 -0.125 6.222656 -0.09375 6.359375 -0.09375 L 6.484375 -0.09375 L 6.484375 0 L 3.953125 0 L 3.953125 -0.09375 L 4.15625 -0.09375 C 4.394531 -0.09375 4.566406 -0.117188 4.671875 -0.171875 C 4.773438 -0.222656 4.828125 -0.320312 4.828125 -0.46875 C 4.828125 -0.519531 4.816406 -0.578125 4.796875 -0.640625 C 4.785156 -0.710938 4.765625 -0.789062 4.734375 -0.875 L 4.1875 -2.375 L 1.6875 -2.375 L 1.1875 -0.9375 C 1.132812 -0.78125 1.109375 -0.648438 1.109375 -0.546875 C 1.109375 -0.378906 1.179688 -0.257812 1.328125 -0.1875 C 1.472656 -0.125 1.707031 -0.09375 2.03125 -0.09375 L 2.234375 -0.09375 L 2.234375 0 Z M 1.71875 -2.46875 L 4.140625 -2.46875 L 3.46875 -4.265625 C 3.226562 -4.878906 3.039062 -5.429688 2.90625 -5.921875 C 2.84375 -5.734375 2.785156 -5.566406 2.734375 -5.421875 C 2.691406 -5.285156 2.644531 -5.140625 2.59375 -4.984375 C 2.539062 -4.828125 2.472656 -4.640625 2.390625 -4.421875 Z M 1.71875 -2.46875 "/></g></g></g><g fill="#ffffff" fill-opacity="1"><g transform="translate(125.119341, 51.522368)"><g><path d="M 2.671875 0 L 0.859375 -5.984375 C 0.796875 -6.160156 0.71875 -6.285156 0.625 -6.359375 C 0.539062 -6.429688 0.398438 -6.46875 0.203125 -6.46875 L 0.078125 -6.46875 L 0.078125 -6.5625 L 2.609375 -6.5625 L 2.609375 -6.46875 L 2.390625 -6.46875 C 2.203125 -6.46875 2.0625 -6.4375 1.96875 -6.375 C 1.882812 -6.320312 1.84375 -6.226562 1.84375 -6.09375 C 1.84375 -6 1.867188 -5.863281 1.921875 -5.6875 L 2.90625 -2.453125 C 2.988281 -2.179688 3.0625 -1.898438 3.125 -1.609375 C 3.1875 -1.328125 3.25 -1.035156 3.3125 -0.734375 C 3.351562 -0.910156 3.40625 -1.125 3.46875 -1.375 C 3.53125 -1.632812 3.597656 -1.910156 3.671875 -2.203125 L 4.765625 -6.5 L 5.15625 -6.5 L 6.5 -2.515625 C 6.625 -2.140625 6.734375 -1.78125 6.828125 -1.4375 C 6.921875 -1.101562 6.992188 -0.832031 7.046875 -0.625 C 7.078125 -0.757812 7.101562 -0.867188 7.125 -0.953125 C 7.15625 -1.035156 7.179688 -1.128906 7.203125 -1.234375 C 7.222656 -1.335938 7.265625 -1.488281 7.328125 -1.6875 L 8.34375 -5.546875 C 8.394531 -5.742188 8.421875 -5.90625 8.421875 -6.03125 C 8.421875 -6.195312 8.367188 -6.3125 8.265625 -6.375 C 8.171875 -6.4375 8.015625 -6.46875 7.796875 -6.46875 L 7.59375 -6.46875 L 7.59375 -6.5625 L 9.375 -6.5625 L 9.375 -6.46875 L 9.203125 -6.46875 C 9.003906 -6.46875 8.851562 -6.414062 8.75 -6.3125 C 8.65625 -6.207031 8.570312 -6.019531 8.5 -5.75 L 6.96875 0 L 6.421875 0 L 4.609375 -5.484375 L 3.25 0 Z M 2.671875 0 "/></g></g></g><g fill="#ffffff" fill-opacity="1"><g transform="translate(142.080385, 51.522368)"><g><path d="M 0.34375 0 L 0.34375 -0.09375 L 0.46875 -0.09375 C 0.96875 -0.09375 1.21875 -0.3125 1.21875 -0.75 L 1.21875 -5.84375 C 1.21875 -6.257812 0.96875 -6.46875 0.46875 -6.46875 L 0.34375 -6.46875 L 0.34375 -6.5625 L 3.015625 -6.5625 L 3.015625 -6.46875 L 2.90625 -6.46875 C 2.40625 -6.46875 2.15625 -6.25 2.15625 -5.8125 L 2.15625 -0.75 C 2.15625 -0.3125 2.40625 -0.09375 2.90625 -0.09375 L 3.015625 -0.09375 L 3.015625 0 Z M 0.34375 0 "/></g></g></g><g fill="#ffffff" fill-opacity="1"><g transform="translate(152.797835, 51.522368)"><g><path d="M 0.34375 0 L 0.34375 -0.09375 L 0.46875 -0.09375 C 0.96875 -0.09375 1.21875 -0.3125 1.21875 -0.75 L 1.21875 -5.84375 C 1.21875 -6.257812 0.96875 -6.46875 0.46875 -6.46875 L 0.34375 -6.46875 L 0.34375 -6.5625 L 3.015625 -6.5625 L 3.015625 -6.46875 L 2.90625 -6.46875 C 2.40625 -6.46875 2.15625 -6.25 2.15625 -5.8125 L 2.15625 -0.09375 L 3.84375 -0.09375 C 4.175781 -0.09375 4.4375 -0.140625 4.625 -0.234375 C 4.820312 -0.328125 4.960938 -0.488281 5.046875 -0.71875 C 5.140625 -0.957031 5.203125 -1.273438 5.234375 -1.671875 L 5.25 -1.96875 L 5.34375 -1.96875 L 5.28125 0 Z M 0.34375 0 "/></g></g></g><g fill="#ffffff" fill-opacity="1"><g transform="translate(165.865815, 51.522368)"><g><path d="M 2.375 0.09375 C 1.757812 0.09375 1.28125 -0.0234375 0.9375 -0.265625 C 0.601562 -0.515625 0.4375 -0.816406 0.4375 -1.171875 C 0.4375 -1.597656 0.660156 -1.8125 1.109375 -1.8125 C 1.109375 -1.21875 1.21875 -0.765625 1.4375 -0.453125 C 1.65625 -0.148438 1.988281 0 2.4375 0 C 2.820312 0 3.132812 -0.113281 3.375 -0.34375 C 3.625 -0.570312 3.75 -0.910156 3.75 -1.359375 C 3.75 -1.628906 3.695312 -1.847656 3.59375 -2.015625 C 3.488281 -2.191406 3.328125 -2.347656 3.109375 -2.484375 C 2.890625 -2.628906 2.597656 -2.785156 2.234375 -2.953125 C 2.046875 -3.046875 1.847656 -3.144531 1.640625 -3.25 C 1.441406 -3.351562 1.257812 -3.476562 1.09375 -3.625 C 0.925781 -3.78125 0.789062 -3.960938 0.6875 -4.171875 C 0.59375 -4.390625 0.546875 -4.65625 0.546875 -4.96875 C 0.546875 -5.507812 0.71875 -5.925781 1.0625 -6.21875 C 1.414062 -6.507812 1.890625 -6.65625 2.484375 -6.65625 C 2.835938 -6.65625 3.148438 -6.601562 3.421875 -6.5 C 3.691406 -6.40625 3.898438 -6.273438 4.046875 -6.109375 C 4.191406 -5.953125 4.265625 -5.78125 4.265625 -5.59375 C 4.265625 -5.414062 4.195312 -5.273438 4.0625 -5.171875 C 3.9375 -5.078125 3.765625 -5.03125 3.546875 -5.03125 C 3.546875 -5.53125 3.460938 -5.910156 3.296875 -6.171875 C 3.128906 -6.429688 2.851562 -6.5625 2.46875 -6.5625 C 2.113281 -6.5625 1.828125 -6.453125 1.609375 -6.234375 C 1.398438 -6.023438 1.296875 -5.710938 1.296875 -5.296875 C 1.296875 -4.992188 1.351562 -4.75 1.46875 -4.5625 C 1.582031 -4.382812 1.75 -4.226562 1.96875 -4.09375 C 2.1875 -3.957031 2.46875 -3.8125 2.8125 -3.65625 C 3.113281 -3.507812 3.394531 -3.359375 3.65625 -3.203125 C 3.914062 -3.054688 4.125 -2.863281 4.28125 -2.625 C 4.445312 -2.394531 4.53125 -2.09375 4.53125 -1.71875 C 4.53125 -1.15625 4.34375 -0.710938 3.96875 -0.390625 C 3.59375 -0.0664062 3.0625 0.09375 2.375 0.09375 Z M 2.375 0.09375 "/></g></g></g><g fill="#ffffff" fill-opacity="1"><g transform="translate(178.208436, 51.522368)"><g><path d="M 3.40625 0.09375 C 2.757812 0.09375 2.21875 -0.046875 1.78125 -0.328125 C 1.351562 -0.609375 1.035156 -1.003906 0.828125 -1.515625 C 0.617188 -2.023438 0.515625 -2.617188 0.515625 -3.296875 C 0.515625 -3.972656 0.617188 -4.5625 0.828125 -5.0625 C 1.035156 -5.570312 1.351562 -5.960938 1.78125 -6.234375 C 2.21875 -6.515625 2.765625 -6.65625 3.421875 -6.65625 C 4.035156 -6.65625 4.554688 -6.515625 4.984375 -6.234375 C 5.410156 -5.960938 5.734375 -5.570312 5.953125 -5.0625 C 6.179688 -4.5625 6.296875 -3.972656 6.296875 -3.296875 C 6.296875 -2.609375 6.179688 -2.007812 5.953125 -1.5 C 5.734375 -1 5.410156 -0.609375 4.984375 -0.328125 C 4.554688 -0.046875 4.03125 0.09375 3.40625 0.09375 Z M 3.40625 0 C 4.0625 0 4.535156 -0.257812 4.828125 -0.78125 C 5.128906 -1.300781 5.28125 -2.140625 5.28125 -3.296875 C 5.28125 -4.441406 5.128906 -5.269531 4.828125 -5.78125 C 4.535156 -6.300781 4.066406 -6.5625 3.421875 -6.5625 C 2.765625 -6.5625 2.285156 -6.300781 1.984375 -5.78125 C 1.679688 -5.269531 1.53125 -4.441406 1.53125 -3.296875 C 1.53125 -2.140625 1.675781 -1.300781 1.96875 -0.78125 C 2.269531 -0.257812 2.75 0 3.40625 0 Z M 3.40625 0 "/></g></g></g><g fill="#ffffff" fill-opacity="1"><g transform="translate(192.369048, 51.522368)"><g><path d="M 0.34375 0 L 0.34375 -0.09375 L 0.609375 -0.09375 C 1.117188 -0.09375 1.375 -0.3125 1.375 -0.75 L 1.375 -5.84375 C 1.375 -6.257812 1.117188 -6.46875 0.609375 -6.46875 L 0.34375 -6.46875 L 0.34375 -6.5625 L 2.140625 -6.5625 L 5.640625 -1.3125 L 5.640625 -5.8125 C 5.640625 -6.25 5.390625 -6.46875 4.890625 -6.46875 L 4.625 -6.46875 L 4.625 -6.5625 L 6.75 -6.5625 L 6.75 -6.46875 L 6.484375 -6.46875 C 5.984375 -6.46875 5.734375 -6.25 5.734375 -5.8125 L 5.734375 0 L 5.453125 0 L 1.453125 -5.984375 L 1.453125 -0.75 C 1.453125 -0.3125 1.707031 -0.09375 2.21875 -0.09375 L 2.46875 -0.09375 L 2.46875 0 Z M 0.34375 0 "/></g></g></g><g clip-path="url(#8d580d4d2e)"><path fill="#ffffff" d="M 281.511719 82.101562 L 43.003906 82.101562 C 37.261719 82.101562 31.695312 81.03125 26.453125 78.910156 C 21.371094 76.855469 16.820312 73.917969 12.910156 70.1875 C 8.988281 66.429688 5.902344 62.0625 3.75 57.195312 C 1.507812 52.136719 0.371094 46.769531 0.371094 41.230469 C 0.371094 35.691406 1.507812 30.324219 3.742188 25.273438 C 5.902344 20.402344 8.980469 16.03125 12.90625 12.285156 C 16.820312 8.542969 21.378906 5.613281 26.449219 3.558594 C 31.703125 1.445312 37.269531 0.375 43.003906 0.375 L 281.511719 0.375 C 287.246094 0.375 292.8125 1.445312 298.054688 3.566406 C 303.121094 5.613281 307.679688 8.550781 311.597656 12.292969 C 315.527344 16.046875 318.613281 20.417969 320.765625 25.28125 C 323 30.332031 324.136719 35.699219 324.136719 41.238281 C 324.136719 46.777344 323 52.144531 320.765625 57.195312 C 318.613281 62.0625 315.535156 66.429688 311.597656 70.1875 C 307.6875 73.917969 303.128906 76.855469 298.054688 78.910156 C 292.8125 81.023438 287.246094 82.101562 281.511719 82.101562 " fill-opacity="1" fill-rule="nonzero"/></g><path fill="#5eab46" d="M 229.0625 8.335938 C 233.980469 8.859375 239.007812 9.773438 243.382812 12.230469 C 246.289062 13.894531 248.851562 16.558594 249.449219 19.921875 C 249.695312 21.902344 249.613281 23.941406 249.128906 25.882812 C 245.847656 21.8125 242.246094 17.777344 237.535156 15.304688 C 240.75 19.121094 244.335938 22.753906 246.558594 27.261719 C 243.246094 28.078125 239.589844 27.378906 236.78125 25.476562 C 233.550781 23.265625 231.640625 19.644531 230.546875 16.007812 C 229.726562 13.519531 229.457031 10.914062 229.0625 8.335938 " fill-opacity="1" fill-rule="nonzero"/><path fill="#5eab46" d="M 32 32.320312 C 32.007812 35.917969 32 39.523438 32 43.113281 C 34.804688 43.148438 37.621094 43.171875 40.429688 43.113281 C 41.8125 43.113281 43.277344 42.769531 44.289062 41.769531 C 45.3125 40.78125 45.589844 39.320312 45.640625 37.972656 C 45.683594 36.417969 45.347656 34.742188 44.234375 33.601562 C 43.128906 32.605469 41.582031 32.289062 40.109375 32.3125 C 37.417969 32.320312 34.707031 32.3125 32.007812 32.320312 M 24.070312 29.671875 C 23.964844 27.558594 25.871094 25.589844 28.039062 25.671875 C 32.679688 25.6875 37.335938 25.6875 41.984375 25.6875 C 45.003906 25.746094 48.242188 26.539062 50.386719 28.773438 C 52.523438 30.84375 53.308594 33.878906 53.472656 36.765625 C 53.644531 40.046875 53.121094 43.585938 51.03125 46.285156 C 49.085938 48.847656 45.730469 49.925781 42.582031 50 C 39.0625 50.015625 35.535156 49.992188 32 50.015625 C 32.023438 54.535156 32 59.054688 32.023438 63.582031 L 24.054688 63.582031 C 24.070312 52.28125 24.054688 40.976562 24.070312 29.679688 " fill-opacity="1" fill-rule="nonzero"/><path fill="#5eab46" d="M 56.375 25.6875 C 57.671875 25.6875 58.953125 25.648438 60.253906 25.671875 C 62.261719 25.589844 64.0625 27.410156 64.027344 29.390625 C 64.042969 32.253906 64.027344 35.109375 64.027344 37.972656 C 65.492188 35.617188 68.011719 34 70.785156 33.683594 C 76.464844 32.632812 82.433594 36.710938 83.691406 42.207031 C 84.027344 43.621094 84.167969 45.082031 84.175781 46.539062 L 84.175781 63.582031 C 81.652344 63.582031 79.125 63.574219 76.582031 63.582031 C 76.554688 58.285156 76.582031 53 76.574219 47.714844 C 76.636719 44.820312 75.269531 41.492188 72.300781 40.480469 C 70.183594 39.859375 67.644531 40.265625 66.121094 41.90625 C 64.578125 43.546875 64.050781 45.839844 64.027344 48.007812 L 64.027344 63.574219 C 61.476562 63.574219 58.921875 63.566406 56.386719 63.574219 C 56.378906 50.929688 56.394531 38.285156 56.378906 25.671875 " fill-opacity="1" fill-rule="nonzero"/><path fill="#5eab46" d="M 100.851562 50.429688 C 99.28125 50.765625 97.546875 51.035156 96.328125 52.152344 C 95.089844 53.621094 95.089844 56.132812 96.621094 57.390625 C 97.832031 58.269531 99.460938 58.171875 100.875 57.984375 C 102.914062 57.734375 104.789062 56.347656 105.53125 54.429688 C 106.253906 52.652344 106.023438 50.714844 106.0625 48.839844 C 104.394531 49.582031 102.628906 50.070312 100.859375 50.421875 M 92.972656 35.398438 C 95.820312 33.585938 99.378906 33.382812 102.675781 33.578125 C 105.566406 33.789062 108.652344 34.304688 110.902344 36.246094 C 112.488281 37.566406 113.324219 39.597656 113.347656 41.636719 C 113.347656 45.089844 113.332031 48.554688 113.347656 52.015625 C 113.332031 54.761719 112.808594 57.683594 110.925781 59.835938 C 108.699219 62.652344 104.945312 63.792969 101.441406 63.949219 C 97.988281 64.339844 94.214844 64.144531 91.308594 62.054688 C 88.921875 60.488281 88.070312 57.488281 88.191406 54.796875 C 88.078125 52.273438 88.898438 49.4375 91.164062 47.984375 C 93.816406 46.15625 97.085938 45.617188 100.222656 45.21875 C 101.964844 44.933594 103.902344 44.792969 105.296875 43.605469 C 106.292969 42.746094 106.015625 40.976562 104.84375 40.414062 C 103.789062 39.898438 102.585938 39.746094 101.433594 39.636719 C 99.566406 39.558594 97.332031 39.914062 96.402344 41.726562 C 93.902344 41.75 91.390625 41.742188 88.898438 41.726562 C 89.238281 39.164062 90.738281 36.777344 92.972656 35.390625 " fill-opacity="1" fill-rule="nonzero"/><path fill="#5eab46" d="M 139.328125 36.824219 C 142.117188 34.710938 145.636719 33.609375 149.140625 33.527344 C 152.355469 33.617188 155.792969 34.132812 158.335938 36.246094 C 160.695312 34.304688 163.828125 33.742188 166.816406 33.546875 C 170.226562 33.464844 173.699219 34.425781 176.519531 36.351562 C 178.550781 37.785156 179.558594 40.21875 179.941406 42.589844 C 180.351562 44.695312 180.203125 46.851562 180.226562 48.980469 L 180.226562 63.589844 C 178.515625 63.515625 176.734375 63.753906 175.023438 63.410156 C 173.558594 62.992188 172.453125 61.542969 172.496094 60.015625 L 172.496094 45.324219 C 172.496094 43.976562 172.347656 42.476562 171.355469 41.464844 C 169.230469 39.269531 165.300781 39.269531 163.164062 41.425781 C 162.21875 42.371094 162.011719 43.742188 162.011719 45.007812 C 161.996094 51.207031 162.011719 57.40625 161.996094 63.597656 C 159.402344 63.597656 156.800781 63.597656 154.214844 63.597656 L 154.214844 44.710938 C 154.269531 43.335938 153.789062 41.839844 152.625 40.992188 C 150.464844 39.320312 147.078125 39.394531 145.121094 41.335938 C 144.238281 42.207031 143.9375 43.480469 143.953125 44.695312 C 143.9375 50.984375 143.953125 57.277344 143.953125 63.589844 C 141.324219 63.589844 138.707031 63.589844 136.089844 63.582031 C 136.089844 57.503906 136.070312 51.386719 136.089844 45.308594 C 136.242188 42.273438 136.875 38.921875 139.328125 36.839844 " fill-opacity="1" fill-rule="nonzero"/><path fill="#5eab46" d="M 194.644531 50.796875 C 193.28125 51.164062 191.625 51.703125 191.203125 53.195312 C 190.472656 54.886719 191.128906 57.332031 193.066406 57.878906 C 195.667969 58.546875 198.84375 57.863281 200.40625 55.5625 C 201.804688 53.605469 201.503906 51.101562 201.519531 48.863281 C 199.328125 49.851562 196.96875 50.277344 194.644531 50.796875 M 190.300781 34.476562 C 193.796875 33.203125 197.640625 33.359375 201.265625 33.96875 C 204.230469 34.484375 207.328125 36.128906 208.378906 39.09375 C 209.1875 41.695312 208.722656 44.46875 208.851562 47.136719 C 208.722656 51.042969 209.375 55.335938 207.15625 58.832031 C 205.179688 62.054688 201.339844 63.679688 197.640625 63.898438 C 194.148438 64.273438 190.335938 64.339844 187.296875 62.375 C 184.980469 61.117188 183.804688 58.515625 183.671875 56.003906 C 183.5 53.464844 183.796875 50.5625 185.742188 48.710938 C 188.171875 46.582031 191.457031 45.75 194.613281 45.382812 C 196.625 45.023438 198.859375 45.023438 200.5625 43.789062 C 201.699219 43.03125 201.617188 41.171875 200.441406 40.511719 C 199.433594 39.941406 198.253906 39.816406 197.117188 39.671875 C 195.203125 39.550781 192.847656 39.867188 191.863281 41.742188 C 189.367188 41.761719 186.871094 41.757812 184.367188 41.742188 C 184.769531 38.464844 187.160156 35.601562 190.285156 34.484375 " fill-opacity="1" fill-rule="nonzero"/><path fill="#5eab46" d="M 121.679688 37.460938 C 125.03125 34.785156 129.542969 34.109375 133.730469 34.214844 C 133.730469 36.832031 133.730469 39.460938 133.738281 42.09375 C 131.570312 42.128906 129.191406 41.792969 127.234375 42.957031 C 125.433594 43.960938 124.820312 46.132812 124.820312 48.042969 L 124.820312 63.589844 C 122.210938 63.589844 119.609375 63.589844 117.003906 63.589844 C 117.023438 58.402344 116.972656 53.246094 117.023438 48.082031 C 117.09375 44.140625 118.527344 40.007812 121.6875 37.46875 " fill-opacity="1" fill-rule="nonzero"/><path fill="#0072bc" d="M 256.371094 25.6875 C 258.574219 25.902344 261.304688 24.964844 263.015625 26.773438 C 264.03125 27.664062 264.1875 29.050781 264.128906 30.316406 C 264.105469 31.667969 264.105469 33.03125 264.113281 34.386719 L 268.695312 34.386719 C 268.671875 35.714844 268.890625 37.25 267.859375 38.332031 C 266.976562 39.441406 265.480469 39.746094 264.113281 39.671875 C 264.113281 45.015625 264.105469 50.375 264.113281 55.726562 C 264.0625 56.507812 264.414062 57.398438 265.226562 57.632812 C 266.363281 57.878906 267.535156 57.699219 268.695312 57.742188 C 268.695312 59.683594 268.671875 61.632812 268.695312 63.582031 C 266.035156 63.597656 263.359375 63.6875 260.683594 63.449219 C 259.621094 63.359375 258.515625 63.035156 257.738281 62.269531 C 256.722656 61.28125 256.402344 59.8125 256.394531 58.457031 C 256.394531 47.535156 256.402344 36.605469 256.378906 25.695312 " fill-opacity="1" fill-rule="nonzero"/><path fill="#0072bc" d="M 216.152344 37.730469 C 218.164062 35.28125 221.28125 33.871094 224.441406 33.609375 C 227.953125 33.300781 231.699219 33.8125 234.679688 35.804688 C 237.230469 37.5 238.761719 40.332031 239.554688 43.195312 C 236.953125 43.195312 234.351562 43.148438 231.765625 43.195312 C 231.125 42.152344 230.398438 41.089844 229.253906 40.550781 C 227.082031 39.558594 224.1875 39.761719 222.460938 41.507812 C 220.945312 43.210938 220.554688 45.554688 220.480469 47.738281 C 220.40625 50.242188 220.480469 52.945312 221.871094 55.144531 C 223.820312 58.378906 229.148438 58.5 231.46875 55.613281 C 231.984375 55.074219 232.601562 54.542969 233.394531 54.542969 C 235.519531 54.460938 237.632812 54.542969 239.777344 54.5 C 239 57.359375 237.371094 60.058594 234.859375 61.707031 C 231.488281 64.023438 227.101562 64.496094 223.132812 63.800781 C 219.621094 63.222656 216.511719 60.90625 214.824219 57.824219 C 213.089844 54.679688 212.683594 50.96875 212.8125 47.445312 C 212.960938 43.996094 213.859375 40.421875 216.152344 37.730469 " fill-opacity="1" fill-rule="nonzero"/><path fill="#0072bc" d="M 242.761719 34.214844 C 244.628906 34.34375 246.601562 33.910156 248.382812 34.539062 C 249.695312 35.144531 250.644531 36.507812 250.59375 37.972656 L 250.59375 63.582031 C 247.992188 63.566406 245.367188 63.582031 242.761719 63.582031 C 242.78125 53.785156 242.777344 44.003906 242.761719 34.214844 " fill-opacity="1" fill-rule="nonzero"/><path fill="#0072bc" d="M 271.574219 34.214844 L 280.234375 34.214844 C 281.953125 40.085938 283.664062 45.96875 285.378906 51.828125 C 285.648438 52.746094 285.8125 53.71875 286.296875 54.566406 C 288.066406 48.570312 289.800781 42.542969 291.550781 36.539062 C 291.886719 35.257812 293.089844 34.320312 294.421875 34.253906 C 296.4375 34.164062 298.449219 34.246094 300.46875 34.214844 C 296.933594 44.535156 293.417969 54.878906 289.882812 65.222656 C 288.921875 68.035156 288.007812 71.25 285.363281 73.019531 C 282.410156 74.414062 278.972656 74.25 275.8125 73.882812 L 275.8125 67.832031 C 277.710938 67.792969 279.90625 68.066406 281.484375 66.753906 C 282.523438 65.949219 282.359375 64.488281 281.960938 63.394531 C 278.507812 53.667969 275.035156 43.9375 271.582031 34.214844 " fill-opacity="1" fill-rule="nonzero"/><g clip-path="url(#8860c4ab6c)"><path fill="#bcbec0" d="M 43.003906 1.207031 C 37.375 1.207031 31.910156 2.261719 26.761719 4.339844 C 21.789062 6.347656 17.320312 9.226562 13.480469 12.890625 C 9.628906 16.5625 6.609375 20.84375 4.496094 25.617188 C 2.304688 30.566406 1.199219 35.820312 1.199219 41.230469 C 1.199219 46.644531 2.304688 51.90625 4.496094 56.851562 C 6.605469 61.617188 9.628906 65.90625 13.480469 69.578125 C 17.3125 73.242188 21.785156 76.121094 26.761719 78.128906 C 31.902344 80.207031 37.375 81.265625 43.003906 81.265625 L 281.511719 81.265625 C 287.140625 81.265625 292.605469 80.207031 297.746094 78.128906 C 302.726562 76.113281 307.195312 73.242188 311.027344 69.578125 C 314.886719 65.898438 317.90625 61.609375 320.011719 56.851562 C 322.203125 51.90625 323.316406 46.652344 323.316406 41.230469 C 323.316406 35.8125 322.203125 30.558594 320.011719 25.617188 C 317.90625 20.851562 314.886719 16.570312 311.027344 12.890625 C 307.195312 9.226562 302.726562 6.347656 297.746094 4.339844 C 292.605469 2.261719 287.140625 1.207031 281.511719 1.207031 Z M 281.511719 82.101562 L 43.003906 82.101562 C 37.261719 82.101562 31.695312 81.03125 26.453125 78.910156 C 21.371094 76.855469 16.820312 73.917969 12.910156 70.1875 C 8.988281 66.429688 5.902344 62.0625 3.75 57.195312 C 1.507812 52.136719 0.371094 46.769531 0.371094 41.230469 C 0.371094 35.691406 1.507812 30.324219 3.742188 25.273438 C 5.902344 20.402344 8.980469 16.03125 12.90625 12.285156 C 16.820312 8.542969 21.378906 5.613281 26.449219 3.558594 C 31.703125 1.445312 37.269531 0.375 43.003906 0.375 L 281.511719 0.375 C 287.246094 0.375 292.8125 1.445312 298.054688 3.566406 C 303.121094 5.613281 307.679688 8.550781 311.597656 12.292969 C 315.527344 16.046875 318.613281 20.417969 320.765625 25.28125 C 323 30.332031 324.136719 35.699219 324.136719 41.238281 C 324.136719 46.777344 323 52.144531 320.765625 57.195312 C 318.613281 62.0625 315.535156 66.429688 311.597656 70.1875 C 307.6875 73.917969 303.128906 76.855469 298.054688 78.910156 C 292.8125 81.023438 287.246094 82.101562 281.511719 82.101562 " fill-opacity="1" fill-rule="nonzero"/></g><g clip-path="url(#ea613f2c57)"><path fill="#ffffff" d="M 295.234375 147.144531 L 29 147.144531 C 25.910156 147.144531 23.410156 144.632812 23.410156 141.539062 L 23.410156 13.859375 C 23.410156 10.765625 25.910156 8.257812 29 8.257812 L 295.234375 8.257812 C 298.320312 8.257812 300.824219 10.765625 300.824219 13.859375 L 300.824219 141.539062 C 300.824219 144.632812 298.320312 147.144531 295.234375 147.144531 Z M 295.234375 147.144531 " fill-opacity="1" fill-rule="nonzero"/></g><g fill="#5eab46" fill-opacity="1"><g transform="translate(64.284887, 58.123731)"><g><path d="M 31.875 -23.5 L 31.75 -23.515625 L 23.234375 0 L 18.96875 0 L 10.5 -23.4375 L 10.359375 -23.40625 L 10.96875 -9.46875 L 10.96875 -4.46875 L 14.375 -3.8125 L 14.375 0 L 1.21875 0 L 1.21875 -3.8125 L 4.609375 -4.46875 L 4.609375 -27.28125 L 1.21875 -27.9375 L 1.21875 -31.765625 L 12.921875 -31.765625 L 21.015625 -8.359375 L 21.140625 -8.359375 L 29.296875 -31.765625 L 41.046875 -31.765625 L 41.046875 -27.9375 L 37.640625 -27.28125 L 37.640625 -4.46875 L 41.046875 -3.8125 L 41.046875 0 L 27.890625 0 L 27.890625 -3.8125 L 31.265625 -4.46875 L 31.265625 -9.46875 Z M 31.875 -23.5 "/></g></g></g><g fill="#5eab46" fill-opacity="1"><g transform="translate(106.375857, 58.123731)"><g><path d="M 12.671875 0.453125 C 9.273438 0.453125 6.554688 -0.632812 4.515625 -2.8125 C 2.484375 -5 1.46875 -7.769531 1.46875 -11.125 L 1.46875 -12 C 1.46875 -15.507812 2.429688 -18.394531 4.359375 -20.65625 C 6.285156 -22.925781 8.867188 -24.054688 12.109375 -24.046875 C 15.296875 -24.046875 17.769531 -23.082031 19.53125 -21.15625 C 21.289062 -19.238281 22.171875 -16.644531 22.171875 -13.375 L 22.171875 -9.90625 L 8.078125 -9.90625 L 8.03125 -9.78125 C 8.144531 -8.21875 8.660156 -6.929688 9.578125 -5.921875 C 10.503906 -4.921875 11.765625 -4.421875 13.359375 -4.421875 C 14.765625 -4.421875 15.929688 -4.5625 16.859375 -4.84375 C 17.796875 -5.132812 18.816406 -5.585938 19.921875 -6.203125 L 21.640625 -2.265625 C 20.671875 -1.492188 19.410156 -0.847656 17.859375 -0.328125 C 16.304688 0.191406 14.578125 0.453125 12.671875 0.453125 Z M 12.109375 -19.140625 C 10.929688 -19.140625 10 -18.6875 9.3125 -17.78125 C 8.632812 -16.882812 8.210938 -15.703125 8.046875 -14.234375 L 8.109375 -14.125 L 15.921875 -14.125 L 15.921875 -14.6875 C 15.921875 -16.039062 15.601562 -17.117188 14.96875 -17.921875 C 14.34375 -18.734375 13.390625 -19.140625 12.109375 -19.140625 Z M 12.109375 -19.140625 "/></g></g></g><g fill="#5eab46" fill-opacity="1"><g transform="translate(130.181587, 58.123731)"><g><path d="M 16.734375 -2.875 C 15.992188 -1.789062 15.117188 -0.960938 14.109375 -0.390625 C 13.097656 0.171875 11.941406 0.453125 10.640625 0.453125 C 7.734375 0.453125 5.476562 -0.601562 3.875 -2.71875 C 2.269531 -4.84375 1.46875 -7.65625 1.46875 -11.15625 L 1.46875 -11.609375 C 1.46875 -15.328125 2.273438 -18.328125 3.890625 -20.609375 C 5.503906 -22.898438 7.769531 -24.046875 10.6875 -24.046875 C 11.863281 -24.046875 12.925781 -23.785156 13.875 -23.265625 C 14.820312 -22.753906 15.648438 -22.023438 16.359375 -21.078125 L 16.359375 -29.546875 L 12.96875 -30.203125 L 12.96875 -34.046875 L 22.734375 -34.046875 L 22.734375 -4.46875 L 25.796875 -3.8125 L 25.796875 0 L 17.21875 0 Z M 7.828125 -11.15625 C 7.828125 -9.082031 8.171875 -7.453125 8.859375 -6.265625 C 9.554688 -5.085938 10.691406 -4.5 12.265625 -4.5 C 13.191406 -4.5 13.992188 -4.6875 14.671875 -5.0625 C 15.359375 -5.4375 15.921875 -5.984375 16.359375 -6.703125 L 16.359375 -16.71875 C 15.921875 -17.46875 15.363281 -18.050781 14.6875 -18.46875 C 14.019531 -18.882812 13.226562 -19.09375 12.3125 -19.09375 C 10.75 -19.09375 9.609375 -18.398438 8.890625 -17.015625 C 8.179688 -15.640625 7.828125 -13.835938 7.828125 -11.609375 Z M 7.828125 -11.15625 "/></g></g></g><g fill="#0072bc" fill-opacity="1"><g transform="translate(156.639169, 58.123731)"><g><path d="M 25.359375 -21.625 L 20.578125 -21.625 L 19.75 -25.984375 C 19.195312 -26.335938 18.390625 -26.644531 17.328125 -26.90625 C 16.265625 -27.164062 15.132812 -27.296875 13.9375 -27.296875 C 12.195312 -27.296875 10.847656 -26.925781 9.890625 -26.1875 C 8.941406 -25.457031 8.46875 -24.507812 8.46875 -23.34375 C 8.46875 -22.269531 8.960938 -21.382812 9.953125 -20.6875 C 10.953125 -20 12.675781 -19.269531 15.125 -18.5 C 18.625 -17.53125 21.28125 -16.242188 23.09375 -14.640625 C 24.90625 -13.035156 25.8125 -10.929688 25.8125 -8.328125 C 25.8125 -5.609375 24.734375 -3.460938 22.578125 -1.890625 C 20.429688 -0.328125 17.597656 0.453125 14.078125 0.453125 C 11.554688 0.453125 9.28125 0.0546875 7.25 -0.734375 C 5.226562 -1.535156 3.539062 -2.644531 2.1875 -4.0625 L 2.1875 -10.6875 L 7.109375 -10.6875 L 7.796875 -6.171875 C 8.429688 -5.648438 9.296875 -5.21875 10.390625 -4.875 C 11.492188 -4.53125 12.722656 -4.359375 14.078125 -4.359375 C 15.816406 -4.359375 17.140625 -4.710938 18.046875 -5.421875 C 18.960938 -6.140625 19.421875 -7.097656 19.421875 -8.296875 C 19.421875 -9.515625 18.988281 -10.492188 18.125 -11.234375 C 17.257812 -11.972656 15.742188 -12.671875 13.578125 -13.328125 C 9.804688 -14.421875 6.953125 -15.71875 5.015625 -17.21875 C 3.078125 -18.71875 2.109375 -20.769531 2.109375 -23.375 C 2.109375 -25.945312 3.195312 -28.050781 5.375 -29.6875 C 7.5625 -31.320312 10.304688 -32.160156 13.609375 -32.203125 C 16.054688 -32.203125 18.28125 -31.832031 20.28125 -31.09375 C 22.289062 -30.351562 23.984375 -29.363281 25.359375 -28.125 Z M 25.359375 -21.625 "/></g></g></g><g fill="#0072bc" fill-opacity="1"><g transform="translate(183.739728, 58.123731)"><g><path d="M 12.453125 -4.421875 C 13.585938 -4.421875 14.5 -4.753906 15.1875 -5.421875 C 15.875 -6.085938 16.21875 -6.972656 16.21875 -8.078125 L 21.96875 -8.078125 L 22.03125 -7.9375 C 22.09375 -5.550781 21.195312 -3.554688 19.34375 -1.953125 C 17.5 -0.347656 15.203125 0.453125 12.453125 0.453125 C 8.929688 0.453125 6.21875 -0.65625 4.3125 -2.875 C 2.414062 -5.101562 1.46875 -7.960938 1.46875 -11.453125 L 1.46875 -12.109375 C 1.46875 -15.585938 2.441406 -18.445312 4.390625 -20.6875 C 6.347656 -22.925781 9.140625 -24.046875 12.765625 -24.046875 C 14.671875 -24.046875 16.378906 -23.757812 17.890625 -23.1875 C 19.398438 -22.625 20.660156 -21.828125 21.671875 -20.796875 L 21.75 -14.484375 L 16.578125 -14.484375 L 15.53125 -18.171875 C 15.21875 -18.453125 14.828125 -18.679688 14.359375 -18.859375 C 13.890625 -19.046875 13.359375 -19.140625 12.765625 -19.140625 C 10.960938 -19.140625 9.6875 -18.484375 8.9375 -17.171875 C 8.195312 -15.859375 7.828125 -14.171875 7.828125 -12.109375 L 7.828125 -11.453125 C 7.828125 -9.347656 8.171875 -7.648438 8.859375 -6.359375 C 9.546875 -5.066406 10.742188 -4.421875 12.453125 -4.421875 Z M 12.453125 -4.421875 "/></g></g></g><g fill="#0072bc" fill-opacity="1"><g transform="translate(207.283617, 58.123731)"><g><path d="M 16.40625 0 C 16.226562 -0.394531 16.070312 -0.796875 15.9375 -1.203125 C 15.8125 -1.617188 15.710938 -2.039062 15.640625 -2.46875 C 14.890625 -1.59375 13.972656 -0.882812 12.890625 -0.34375 C 11.804688 0.1875 10.566406 0.453125 9.171875 0.453125 C 6.847656 0.453125 5.003906 -0.171875 3.640625 -1.421875 C 2.285156 -2.679688 1.609375 -4.394531 1.609375 -6.5625 C 1.609375 -8.78125 2.492188 -10.488281 4.265625 -11.6875 C 6.046875 -12.894531 8.65625 -13.5 12.09375 -13.5 L 15.34375 -13.5 L 15.34375 -15.8125 C 15.34375 -16.945312 15.015625 -17.828125 14.359375 -18.453125 C 13.703125 -19.078125 12.734375 -19.390625 11.453125 -19.390625 C 10.722656 -19.390625 10.070312 -19.304688 9.5 -19.140625 C 8.9375 -18.972656 8.484375 -18.773438 8.140625 -18.546875 L 7.71875 -16.015625 L 2.921875 -16.015625 L 2.953125 -21.25 C 4.109375 -22.039062 5.4375 -22.703125 6.9375 -23.234375 C 8.445312 -23.773438 10.09375 -24.046875 11.875 -24.046875 C 14.789062 -24.046875 17.160156 -23.328125 18.984375 -21.890625 C 20.816406 -20.460938 21.734375 -18.425781 21.734375 -15.78125 L 21.734375 -6.015625 C 21.734375 -5.660156 21.734375 -5.320312 21.734375 -5 C 21.742188 -4.675781 21.769531 -4.367188 21.8125 -4.078125 L 23.765625 -3.8125 L 23.765625 0 Z M 10.890625 -4.25 C 11.847656 -4.25 12.71875 -4.457031 13.5 -4.875 C 14.289062 -5.289062 14.90625 -5.8125 15.34375 -6.4375 L 15.34375 -10.03125 L 12.09375 -10.03125 C 10.738281 -10.03125 9.710938 -9.710938 9.015625 -9.078125 C 8.316406 -8.453125 7.96875 -7.695312 7.96875 -6.8125 C 7.96875 -6.007812 8.222656 -5.378906 8.734375 -4.921875 C 9.253906 -4.472656 9.972656 -4.25 10.890625 -4.25 Z M 10.890625 -4.25 "/></g></g></g><g fill="#0072bc" fill-opacity="1"><g transform="translate(231.83123, 58.123731)"><g><path d="M 1.03125 -3.8125 L 4.078125 -4.46875 L 4.078125 -19.109375 L 0.703125 -19.765625 L 0.703125 -23.609375 L 10.015625 -23.609375 L 10.296875 -20.234375 C 11.085938 -21.429688 12.054688 -22.363281 13.203125 -23.03125 C 14.347656 -23.707031 15.632812 -24.046875 17.0625 -24.046875 C 19.445312 -24.046875 21.304688 -23.296875 22.640625 -21.796875 C 23.984375 -20.296875 24.65625 -17.945312 24.65625 -14.75 L 24.65625 -4.46875 L 27.71875 -3.8125 L 27.71875 0 L 15.53125 0 L 15.53125 -3.8125 L 18.265625 -4.46875 L 18.265625 -14.734375 C 18.265625 -16.316406 17.941406 -17.4375 17.296875 -18.09375 C 16.660156 -18.757812 15.695312 -19.09375 14.40625 -19.09375 C 13.5625 -19.09375 12.800781 -18.921875 12.125 -18.578125 C 11.457031 -18.234375 10.898438 -17.75 10.453125 -17.125 L 10.453125 -4.46875 L 13.03125 -3.8125 L 13.03125 0 L 1.03125 0 Z M 1.03125 -3.8125 "/></g></g></g><g clip-path="url(#62c551efb1)"><path fill="#5eab46" d="M 240.230469 21.710938 C 236.542969 21.710938 233.539062 18.710938 233.539062 15.019531 C 233.539062 11.332031 236.542969 8.328125 240.230469 8.328125 C 243.921875 8.328125 246.921875 11.332031 246.921875 15.019531 C 246.921875 18.710938 243.921875 21.710938 240.230469 21.710938 Z M 240.230469 9.429688 C 239.863281 9.429688 239.5 9.464844 239.140625 9.535156 C 238.78125 9.609375 238.433594 9.714844 238.09375 9.855469 C 237.753906 9.996094 237.429688 10.167969 237.125 10.371094 C 236.820312 10.574219 236.539062 10.808594 236.277344 11.066406 C 236.019531 11.328125 235.789062 11.609375 235.582031 11.914062 C 235.378906 12.21875 235.207031 12.542969 235.066406 12.878906 C 234.925781 13.21875 234.820312 13.570312 234.75 13.929688 C 234.675781 14.289062 234.640625 14.652344 234.640625 15.019531 C 234.640625 15.386719 234.675781 15.75 234.75 16.109375 C 234.820312 16.472656 234.925781 16.820312 235.066406 17.160156 C 235.207031 17.5 235.378906 17.820312 235.582031 18.125 C 235.789062 18.429688 236.019531 18.714844 236.277344 18.972656 C 236.539062 19.234375 236.820312 19.464844 237.125 19.667969 C 237.429688 19.871094 237.753906 20.042969 238.09375 20.183594 C 238.433594 20.324219 238.78125 20.433594 239.140625 20.503906 C 239.5 20.574219 239.863281 20.609375 240.230469 20.609375 C 240.597656 20.609375 240.960938 20.574219 241.324219 20.503906 C 241.683594 20.433594 242.03125 20.324219 242.371094 20.183594 C 242.710938 20.042969 243.03125 19.871094 243.339844 19.667969 C 243.644531 19.464844 243.925781 19.234375 244.183594 18.972656 C 244.445312 18.714844 244.675781 18.429688 244.878906 18.125 C 245.085938 17.820312 245.257812 17.5 245.398438 17.160156 C 245.539062 16.820312 245.644531 16.472656 245.714844 16.109375 C 245.785156 15.75 245.824219 15.386719 245.824219 15.019531 C 245.824219 14.652344 245.785156 14.289062 245.714844 13.929688 C 245.640625 13.570312 245.535156 13.21875 245.394531 12.882812 C 245.253906 12.542969 245.082031 12.222656 244.878906 11.914062 C 244.675781 11.609375 244.441406 11.328125 244.183594 11.070312 C 243.921875 10.808594 243.640625 10.578125 243.335938 10.375 C 243.03125 10.171875 242.710938 9.996094 242.371094 9.855469 C 242.03125 9.714844 241.683594 9.609375 241.320312 9.539062 C 240.960938 9.464844 240.597656 9.429688 240.230469 9.429688 Z M 240.230469 9.429688 " fill-opacity="1" fill-rule="nonzero"/></g><path fill="#5eab46" d="M 245.0625 22.433594 C 244.789062 22.433594 244.601562 22.308594 244.496094 22.054688 C 244.390625 21.800781 244.433594 21.578125 244.625 21.382812 L 246.332031 19.667969 C 246.449219 19.535156 246.59375 19.464844 246.773438 19.457031 C 246.949219 19.453125 247.101562 19.511719 247.226562 19.636719 C 247.351562 19.761719 247.414062 19.910156 247.410156 20.089844 C 247.40625 20.265625 247.335938 20.414062 247.207031 20.53125 L 245.5 22.25 C 245.382812 22.371094 245.234375 22.433594 245.0625 22.433594 Z M 245.0625 22.433594 " fill-opacity="1" fill-rule="nonzero"/><g clip-path="url(#85c0eb8657)"><path fill="#5eab46" d="M 252.457031 28.214844 C 252.160156 28.214844 251.910156 28.109375 251.703125 27.894531 L 247.167969 23.253906 C 247.070312 23.152344 246.996094 23.035156 246.945312 22.90625 C 246.890625 22.777344 246.867188 22.640625 246.867188 22.5 C 246.871094 22.363281 246.898438 22.226562 246.953125 22.097656 C 247.007812 21.96875 247.085938 21.855469 247.1875 21.757812 C 247.285156 21.660156 247.402344 21.585938 247.53125 21.53125 C 247.660156 21.480469 247.796875 21.457031 247.9375 21.457031 C 248.078125 21.457031 248.210938 21.488281 248.339844 21.542969 C 248.46875 21.597656 248.582031 21.675781 248.679688 21.777344 L 253.214844 26.417969 C 253.363281 26.570312 253.457031 26.75 253.496094 26.960938 C 253.535156 27.167969 253.515625 27.371094 253.433594 27.566406 C 253.351562 27.761719 253.21875 27.917969 253.042969 28.039062 C 252.867188 28.15625 252.671875 28.214844 252.457031 28.214844 Z M 252.457031 28.214844 " fill-opacity="1" fill-rule="nonzero"/></g><path fill="#5eab46" d="M 240.222656 19.734375 C 239.359375 19.734375 238.21875 19.484375 237 18.546875 C 235.929688 17.726562 235.4375 16.457031 235.574219 14.886719 C 235.640625 14.160156 235.8125 13.457031 236.09375 12.785156 C 236.128906 12.703125 236.191406 12.644531 236.277344 12.613281 C 236.359375 12.582031 236.445312 12.582031 236.527344 12.621094 C 236.609375 12.65625 236.667969 12.71875 236.699219 12.800781 C 236.734375 12.886719 236.730469 12.972656 236.695312 13.054688 C 236.445312 13.667969 236.289062 14.300781 236.230469 14.960938 C 236.117188 16.304688 236.511719 17.335938 237.402344 18.023438 C 239.605469 19.71875 241.484375 18.84375 241.503906 18.832031 C 241.585938 18.789062 241.671875 18.785156 241.761719 18.8125 C 241.847656 18.84375 241.910156 18.898438 241.953125 18.984375 C 241.992188 19.066406 241.996094 19.152344 241.964844 19.238281 C 241.933594 19.328125 241.875 19.390625 241.792969 19.425781 C 241.746094 19.453125 241.140625 19.734375 240.222656 19.734375 Z M 240.222656 19.734375 " fill-opacity="1" fill-rule="nonzero"/></svg>