<?xml version="1.0" encoding="UTF-8"?>
<svg id="Layer_2" data-name="Layer 2" xmlns="http://www.w3.org/2000/svg" viewBox="0 0 433.18 109.04">
  <defs>
    <style>
      .cls-1 {
        fill: #0072bc;
      }

      .cls-2 {
        fill: #fff;
      }

      .cls-3 {
        fill: #bcbec0;
      }

      .cls-4 {
        fill: #5eab46;
      }
    </style>
  </defs>
  <g id="Layer_1-2" data-name="Layer 1">
    <g>
      <path class="cls-2" d="M376.16,109.04H57.04c-7.68,0-15.13-1.43-22.14-4.26-6.8-2.74-12.89-6.66-18.12-11.64-5.25-5.01-9.38-10.84-12.26-17.33C1.52,69.06,0,61.9,0,54.51s1.52-14.55,4.51-21.29c2.89-6.5,7.01-12.33,12.26-17.33,5.24-4.99,11.34-8.9,18.12-11.64C41.92,1.43,49.37,0,57.04,0H376.16c7.67,0,15.12,1.43,22.13,4.26,6.78,2.73,12.88,6.65,18.12,11.64,5.26,5.01,9.39,10.84,12.27,17.33,2.99,6.74,4.51,13.9,4.51,21.29s-1.52,14.55-4.51,21.29c-2.88,6.49-7,12.32-12.27,17.33-5.23,4.98-11.33,8.9-18.12,11.64-7.01,2.82-14.46,4.26-22.13,4.26"/>
      <path class="cls-4" d="M305.98,10.62c6.58,.7,13.31,1.92,19.16,5.2,3.89,2.22,7.32,5.77,8.12,10.26,.33,2.64,.22,5.36-.43,7.95-4.39-5.43-9.21-10.81-15.51-14.11,4.3,5.09,9.1,9.94,12.07,15.95-4.43,1.09-9.32,.16-13.08-2.38-4.32-2.95-6.88-7.78-8.34-12.63-1.1-3.32-1.46-6.8-1.99-10.24"/>
      <path class="cls-4" d="M42.32,42.62c.01,4.8,0,9.61,0,14.4,3.75,.05,7.52,.08,11.28,0,1.85,0,3.81-.46,5.16-1.79,1.37-1.32,1.74-3.27,1.81-5.07,.06-2.07-.39-4.31-1.88-5.83-1.48-1.33-3.55-1.75-5.52-1.72-3.6,.01-7.23,0-10.84,.01m-10.62-3.53c-.14-2.82,2.41-5.45,5.31-5.34,6.21,.02,12.44,.02,18.66,.02,4.04,.08,8.37,1.14,11.24,4.12,2.86,2.76,3.91,6.81,4.13,10.66,.23,4.38-.47,9.1-3.27,12.7-2.6,3.42-7.09,4.86-11.3,4.96-4.71,.02-9.43-.01-14.16,.02,.03,6.03,0,12.06,.03,18.1h-10.66c.02-15.08,0-30.16,.02-45.23"/>
      <path class="cls-4" d="M74.93,33.77c1.74,0,3.45-.05,5.19-.02,2.69-.11,5.1,2.32,5.05,4.96,.02,3.82,0,7.63,0,11.45,1.96-3.14,5.33-5.3,9.04-5.72,7.6-1.4,15.59,4.04,17.27,11.37,.45,1.89,.64,3.84,.65,5.78v22.74c-3.38,0-6.76-.01-10.16,0-.04-7.07,0-14.12-.01-21.17,.08-3.86-1.75-8.3-5.72-9.65-2.83-.83-6.23-.29-8.27,1.9-2.06,2.19-2.77,5.25-2.8,8.14v20.77c-3.41,0-6.83-.01-10.22,0-.01-16.87,.01-33.74-.01-50.57"/>
      <path class="cls-4" d="M134.44,66.78c-2.1,.45-4.42,.81-6.05,2.3-1.66,1.96-1.66,5.31,.39,6.99,1.62,1.17,3.8,1.04,5.69,.79,2.73-.33,5.24-2.18,6.23-4.74,.97-2.37,.66-4.96,.71-7.46-2.23,.99-4.59,1.64-6.96,2.11m-10.55-20.04c3.81-2.42,8.57-2.69,12.98-2.43,3.87,.28,8,.97,11.01,3.56,2.12,1.76,3.24,4.47,3.27,7.19,0,4.61-.02,9.23,0,13.85-.02,3.66-.72,7.56-3.24,10.43-2.98,3.76-8,5.28-12.69,5.49-4.62,.52-9.67,.26-13.56-2.53-3.19-2.09-4.33-6.09-4.17-9.68-.15-3.37,.95-7.15,3.98-9.09,3.55-2.44,7.92-3.16,12.12-3.69,2.33-.38,4.92-.57,6.79-2.15,1.33-1.15,.96-3.51-.61-4.26-1.41-.69-3.02-.89-4.56-1.04-2.5-.1-5.49,.37-6.73,2.79-3.35,.03-6.71,.02-10.04,0,.45-3.42,2.46-6.6,5.45-8.45"/>
      <path class="cls-4" d="M185.92,48.63c3.73-2.82,8.44-4.29,13.13-4.4,4.3,.12,8.9,.81,12.3,3.63,3.16-2.59,7.35-3.34,11.35-3.6,4.56-.11,9.21,1.17,12.98,3.74,2.72,1.91,4.07,5.16,4.58,8.32,.55,2.81,.35,5.69,.38,8.53v19.49c-2.29-.1-4.67,.22-6.96-.24-1.96-.56-3.44-2.49-3.38-4.53v-19.6c0-1.8-.2-3.8-1.53-5.15-2.84-2.93-8.1-2.93-10.96-.05-1.26,1.26-1.54,3.09-1.54,4.78-.02,8.27,0,16.54-.02,24.8-3.47,0-6.95,0-10.41,0v-25.2c.07-1.83-.57-3.83-2.13-4.96-2.89-2.23-7.42-2.13-10.04,.46-1.18,1.16-1.58,2.86-1.56,4.48-.02,8.39,0,16.79,0,25.21-3.52,0-7.02,0-10.52-.01,0-8.11-.03-16.27,0-24.38,.2-4.05,1.05-8.52,4.33-11.3"/>
      <path class="cls-4" d="M259.93,67.27c-1.82,.49-4.04,1.21-4.6,3.2-.98,2.26-.1,5.52,2.49,6.25,3.48,.89,7.73-.02,9.82-3.09,1.87-2.61,1.47-5.95,1.49-8.94-2.93,1.32-6.09,1.89-9.2,2.58m-5.81-21.77c4.68-1.7,9.82-1.49,14.67-.68,3.97,.69,8.11,2.88,9.52,6.84,1.08,3.47,.46,7.17,.63,10.73-.17,5.21,.7,10.94-2.27,15.6-2.64,4.3-7.78,6.47-12.73,6.76-4.67,.5-9.77,.59-13.84-2.03-3.1-1.68-4.67-5.15-4.85-8.5-.23-3.39,.17-7.26,2.77-9.73,3.25-2.84,7.65-3.95,11.87-4.44,2.69-.48,5.68-.48,7.96-2.13,1.52-1.01,1.41-3.49-.16-4.37-1.35-.76-2.93-.93-4.45-1.12-2.56-.16-5.71,.26-7.03,2.76-3.34,.03-6.68,.02-10.03,0,.54-4.37,3.74-8.19,7.92-9.68"/>
      <path class="cls-4" d="M162.31,49.48c4.48-3.57,10.52-4.47,16.12-4.33,0,3.49,0,7,.01,10.51-2.9,.05-6.08-.4-8.7,1.15-2.41,1.34-3.23,4.24-3.23,6.79v20.74c-3.49,0-6.97,0-10.46,0,.03-6.92-.04-13.8,.03-20.69,.09-5.26,2.01-10.77,6.24-14.16"/>
      <path class="cls-1" d="M342.52,33.77c2.95,.29,6.6-.96,8.89,1.45,1.36,1.19,1.57,3.04,1.49,4.73-.03,1.8-.03,3.62-.02,5.43h6.13c-.03,1.77,.26,3.82-1.12,5.26-1.18,1.48-3.18,1.89-5.01,1.79,0,7.13-.01,14.28,0,21.42-.07,1.04,.4,2.23,1.49,2.54,1.52,.33,3.09,.09,4.64,.15,0,2.59-.03,5.19,0,7.79-3.56,.02-7.14,.14-10.72-.18-1.42-.12-2.9-.55-3.94-1.57-1.36-1.32-1.79-3.28-1.8-5.09,0-14.57,.01-29.15-.02-43.71"/>
      <path class="cls-1" d="M288.71,49.84c2.69-3.27,6.86-5.15,11.09-5.5,4.7-.41,9.71,.27,13.7,2.93,3.41,2.26,5.46,6.04,6.52,9.86-3.48,0-6.96-.06-10.42,0-.86-1.39-1.83-2.81-3.36-3.53-2.91-1.32-6.78-1.05-9.09,1.28-2.03,2.27-2.55,5.4-2.65,8.31-.1,3.34,0,6.95,1.86,9.88,2.61,4.32,9.74,4.48,12.84,.63,.69-.72,1.52-1.43,2.58-1.43,2.84-.11,5.67,0,8.54-.06-1.04,3.82-3.22,7.42-6.58,9.62-4.51,3.09-10.38,3.72-15.69,2.79-4.7-.77-8.86-3.86-11.12-7.97-2.32-4.2-2.86-9.15-2.69-13.85,.2-4.6,1.4-9.37,4.47-12.96"/>
      <path class="cls-1" d="M324.31,45.15c2.5,.17,5.14-.41,7.52,.43,1.76,.81,3.03,2.63,2.96,4.58v34.17c-3.48-.02-6.99,0-10.48,0,.03-13.07,.02-26.12,0-39.18"/>
      <path class="cls-1" d="M362.86,45.15h11.59c2.3,7.83,4.59,15.68,6.88,23.5,.36,1.22,.58,2.52,1.23,3.65,2.37-8,4.69-16.04,7.03-24.05,.45-1.71,2.06-2.96,3.84-3.05,2.7-.12,5.39-.01,8.09-.05-4.73,13.77-9.43,27.57-14.16,41.37-1.29,3.75-2.51,8.04-6.05,10.4-3.95,1.86-8.55,1.64-12.78,1.15v-8.07c2.54-.05,5.48,.31,7.59-1.44,1.39-1.07,1.17-3.02,.64-4.48-4.62-12.98-9.27-25.96-13.89-38.93"/>
      <path class="cls-3" d="M57.04,1.11c-7.53,0-14.84,1.41-21.73,4.18-6.65,2.68-12.63,6.52-17.77,11.41-5.15,4.9-9.19,10.61-12.02,16.98-2.93,6.6-4.41,13.61-4.41,20.83s1.48,14.24,4.41,20.84c2.82,6.36,6.87,12.08,12.02,16.98,5.13,4.89,11.11,8.73,17.77,11.41,6.88,2.77,14.2,4.18,21.73,4.18H376.16c7.53,0,14.84-1.41,21.72-4.18,6.66-2.69,12.64-6.52,17.77-11.41,5.16-4.91,9.2-10.63,12.02-16.98,2.93-6.6,4.42-13.61,4.42-20.84s-1.49-14.24-4.42-20.83c-2.82-6.36-6.86-12.07-12.02-16.98-5.13-4.89-11.11-8.73-17.77-11.41-6.88-2.77-14.19-4.18-21.72-4.18H57.04ZM376.16,109.04H57.04c-7.68,0-15.13-1.43-22.14-4.26-6.8-2.74-12.89-6.66-18.12-11.64-5.25-5.01-9.38-10.84-12.26-17.33C1.52,69.06,0,61.9,0,54.51s1.52-14.55,4.51-21.29c2.89-6.5,7.01-12.33,12.26-17.33,5.24-4.99,11.34-8.9,18.12-11.64C41.92,1.43,49.37,0,57.04,0H376.16c7.67,0,15.12,1.43,22.13,4.26,6.78,2.73,12.88,6.65,18.12,11.64,5.26,5.01,9.39,10.84,12.27,17.33,2.99,6.74,4.51,13.9,4.51,21.29s-1.52,14.55-4.51,21.29c-2.88,6.49-7,12.32-12.27,17.33-5.23,4.98-11.33,8.9-18.12,11.64-7.01,2.82-14.46,4.26-22.13,4.26"/>
    </g>
  </g>
</svg>